<svg xmlns="http://www.w3.org/2000/svg" viewBox="0 0 426.64 341.68"><defs><style>.b56dabef-08fe-4af8-a9fa-374d56fcffaf{fill:#0bbf7d;}</style></defs><g id="befcdeb4-3ece-4a1c-aeae-78174d0edb12" data-name="Livello 2"><g id="bb68e5fc-79d7-4a8d-aa84-2cade95bb919" data-name="Livello 1"><path class="b56dabef-08fe-4af8-a9fa-374d56fcffaf" d="M213,341.66q-84,0-168,0c-21,0-37.39-11.36-43-30A52,52,0,0,1,.1,296.84Q-.08,170.81,0,44.78C.06,18.22,18.08.07,44.57.05q168.77-.11,337.51,0c26.29,0,44.45,18.07,44.48,44.27q.15,126.53,0,253.06c0,26.35-18.33,44.22-45,44.25Q297.28,341.75,213,341.66ZM42.91,42.93V298.58H191.67V42.93ZM289.67,298.66V280.33c5.9,0,11.51-.07,17.12,0,6.39.11,11.68-2.47,16.23-6.63,6.59-6,8.78-17.7,5.17-26.41-3.05-7.36-10-11-20.24-10.57-12.17.52-17.54,4.88-22.21,18H254.09c1.59-14.15,7.33-25.56,18.79-33.64,18.15-12.8,52.16-13.38,71-1.42,22.73,14.46,24.18,50.48,2.64,66.56-2.36,1.76-5,3.17-8.08,5.11,4.09,2.67,7.64,6.84,11.51,7.16,11.19.94,22.5.33,33.76.33V43H358c.35,1.32.59,2.43.94,3.5,3.87,12,4.16,24.16-1.76,35.47a155.67,155.67,0,0,1-16,25.08c-8.11,10.12-17.4,19.3-26.17,28.9-5.8,6.34-11.57,12.71-18.05,19.85h70.42V181H256.27c0-5.5.28-10.48-.09-15.4-.33-4.3.93-7.4,3.91-10.6,19.77-21.22,39.24-42.72,59-64,7.93-8.56,10.07-19,10.06-30,0-6.38-2.12-12.15-8.16-15.62-12.57-7.22-29.63-.47-33.59,13.46-1,3.62-1.24,7.46-1.87,11.52H252.23C254.92,60.94,257.47,52,260,43H234.9V298.66Z"/><path class="b56dabef-08fe-4af8-a9fa-374d56fcffaf" d="M115.66,132.5,77.41,144.27V118.06l69.73-24.81v162.6H115.66Z"/></g></g></svg>